PathFileType	4	(X/Y/Z)	T1_P2_Vision_NoMovement_0_0-733.trc
DataRate	CameraRate	NumFrames	NumMarkers	Units	OrigDataRate	OrigDataStartFrame	OrigNumFrames
60	60	4	27	m	60	641	733
Frame#	Time	RHip			RKnee			RAnkle			RBigToe			RSmallToe			RHeel			LHip			LKnee			LAnkle			LBigToe			LSmallToe			LHeel			Neck			Head			Nose			RShoulder			RElbow			RWrist			RThumb			RIndex			RPinky			LShoulder			LElbow			LWrist			LThumb			LIndex			LPinky		
		X1	Y1	Z1	X2	Y2	Z2	X3	Y3	Z3	X4	Y4	Z4	X5	Y5	Z5	X6	Y6	Z6	X7	Y7	Z7	X8	Y8	Z8	X9	Y9	Z9	X10	Y10	Z10	X11	Y11	Z11	X12	Y12	Z12	X13	Y13	Z13	X14	Y14	Z14	X15	Y15	Z15	X16	Y16	Z16	X17	Y17	Z17	X18	Y18	Z18	X19	Y19	Z19	X20	Y20	Z20	X21	Y21	Z21	X22	Y22	Z22	X23	Y23	Z23	X24	Y24	Z24	X25	Y25	Z25	X26	Y26	Z26	X27	Y27	Z27
642	10.7	453.9812099976759	3717.1679224149243	634.1236177464176	873.7632610856434	3801.3374094895057	666.2971564371525	1212.0832249481298	3722.756649680663	659.2886281352812	1282.4942217003393	3622.421426614487	643.322292671047	1288.5039275424845	3684.9517852899176	603.5694609481641	1289.1959249506942	3819.7209504017846	747.3812219236479	461.885758741163	3615.9177900996556	836.4799404932353	850.931879691827	3645.3658278107087	850.5613024882972	1240.4814633716342	3694.5214331773973	869.5353992808217	1307.952381617072	3544.6361231882424	805.6029752547057	1283.3241412588025	3537.438557135907	844.6035303360848	1258.3171056251144	3706.1399366682053	857.2479200137823	-105.65551441361251	3624.4717672425877	743.9464533409774	-375.9543780025119	3549.6474399493804	725.6193551004537	-213.465199618532	3431.3390668915295	670.6764842868	-43.386402816963134	3655.524314182487	574.3261112415714	198.90787554517783	3721.799223562275	532.8396785336786	364.71295663372155	3535.016011263649	602.9573814381118	436.6793754990155	3491.218615110919	681.0885538734213	462.9679967625907	3501.3967779501436	697.1605700917398	480.2439488700941	3440.4695321639647	619.2298506237792	-30.236194744545237	3563.2653165831566	892.6138333482023	229.22175708488274	3485.325124038285	888.3978419443748	357.52531836597893	3465.012855842352	699.9154949381693	429.1036565907467	3501.1928805047087	609.3387932706889	453.5787575503499	3500.7123250382756	608.8704212308447	462.0311679552328	3430.259948949761	620.1146874037979
643	10.716666666666667	450.1082378524183	3719.505409740892	641.0031383651452	868.6563653093502	3778.9168839767685	660.4636103867198	1213.9589069538636	3737.8307912801156	671.4536046599006	1297.8578735474455	3659.442890293738	662.526238637487	1286.359692426104	3690.8483874904546	606.6800124537178	1289.1501588922486	3819.8474804220623	747.4258487539271	461.8791978168094	3616.0460043512153	836.5799019263158	851.0377612736934	3645.626202075983	850.6215880530272	1228.4553169466499	3677.226635799998	854.1507670100269	1308.5945951040128	3551.453975781823	799.4364249934193	1283.2128426960037	3537.665598039197	844.4991890738952	1258.2486760869713	3706.047110631939	857.1538867465305	-109.8511096513648	3628.4561388141624	746.2198301180085	-371.5895651766131	3546.181051675086	723.5608954466599	-213.9912240266722	3451.3690291148864	676.6569223805697	-43.36026386328078	3655.522630447774	574.3375469659095	198.91848035493896	3721.889936415178	532.849254330389	364.7720082305242	3535.111512255449	602.9255846488594	436.44578724500644	3491.449278738033	681.2834603381075	462.6815549382637	3503.900782106028	693.3084955252674	480.7198548715024	3440.834167543485	619.5111041856869	-30.287709366286936	3563.2356702214965	892.5806496687482	229.02293372490732	3483.2190365839765	892.8687360730436	357.51898110790245	3465.0240164323072	699.9208195065041	425.7647930899105	3505.663823713458	611.7051735690605	453.4436628398223	3501.1353343426194	609.0206087759782	461.7840472676776	3430.250546607291	620.114456371899
644	10.733333333333333	453.99970049774345	3717.2244399631204	634.204630320766	880.1510166541574	3805.963131792973	667.6043637023121	1214.096864047844	3738.0745361805984	671.5461861963056	1297.8015788528694	3659.826519286953	662.4752581389441	1286.712515802575	3691.593113063155	607.0627212646341	1287.8291267177506	3802.453306198842	742.3627581974833	465.31379701872004	3631.4446946199355	850.751338770155	851.1227521081036	3645.8011750739547	850.7612897705487	1240.645830473517	3694.749473482554	869.5874100719133	1307.9524008690069	3544.74346248172	805.5458701973589	1283.4541986448498	3537.754601255854	844.7425685659166	1258.4325197532405	3706.391399739648	857.3650529943977	-105.47548343106068	3624.4554157131806	743.872282124768	-371.5562876860041	3545.989962654841	723.473891778949	-209.24591761857639	3432.614515704687	670.9468661182499	-43.40207709572636	3655.7237593477894	574.4481931671421	198.86843655266676	3721.985146995066	532.8427238873716	364.7191148258362	3534.962170577513	602.8325871721028	436.2098432993832	3492.0390339219116	681.6448052636401	462.57772856384474	3501.8682800967986	697.6068061322085	476.44095532613267	3437.516842689349	618.4073651163027	-30.236727188572534	3563.2070716993353	892.5533703942024	229.2842460786638	3485.362915509288	888.3455505120727	357.4820961596172	3464.9058746838955	699.7947764525974	425.882216979721	3506.080524041724	612.0153668876852	457.6349375138516	3503.354849566721	610.3762185580399	461.5907473233598	3430.1520952098604	619.9912323480522
645	10.75	454.0165908902036	3717.3268265409206	634.1714951760116	880.0386038593773	3808.206500206508	662.8474544714167	1220.1875105801532	3744.3807913840988	667.161235218123	1290.211326528621	3643.8171695682986	649.343846437921	1286.4550160816177	3690.889191786233	606.6029075573167	1288.39590050852	3806.4576210248047	738.2559973182625	461.9368711374811	3616.0028514895403	836.524744287762	851.3274000161902	3645.934236818683	850.8483979025034	1235.5273379936737	3692.7158432726496	867.7442056205082	1300.8187926773692	3530.151663441047	792.4193599838768	1288.5385504872283	3538.9669376929114	846.3474460187557	1265.1478844484043	3710.7688306677796	858.5771813892405	-105.6361578968059	3624.3807029359264	743.8887852473276	-371.5600944701648	3546.231009462744	723.6174171412403	-213.4967990964292	3430.9266791568084	670.428187271942	-43.400701137867344	3655.6803989562704	574.4060460938372	195.05568677057386	3728.682519218835	530.9031808443302	364.6978929482818	3535.0808145059095	602.8310717390285	432.83874963491155	3496.383184810647	684.0092605736007	462.669081122397	3502.139776298909	697.7154431537685	481.39492558574983	3441.619295416043	619.8267158096951	-30.28525354643955	3562.817461623908	892.3490306862739	229.14897884745506	3485.4323961178225	888.4734577335842	357.462040326645	3465.0779406023867	699.8286385172016	425.7821352502489	3506.3346997455074	611.8826962133345	457.37045401446915	3503.6452312683255	610.2762042684249	461.60616144319783	3430.24020353243	619.9545543908565
